<?xml version="1.0" standalone="no"?>
<!DOCTYPE svg PUBLIC "-//W3C//DTD SVG 20010904//EN"
 "http://www.w3.org/TR/2001/REC-SVG-20010904/DTD/svg10.dtd">
<svg version="1.0" xmlns="http://www.w3.org/2000/svg"
 width="76.000000pt" height="79.000000pt" viewBox="0 0 76.000000 79.000000"
 preserveAspectRatio="xMidYMid meet">

<g transform="translate(0.000000,79.000000) scale(0.100000,-0.100000)"
fill="#000000" stroke="none">
<path d="M0 395 l0 -395 380 0 380 0 0 395 0 395 -380 0 -380 0 0 -395z m547
311 c76 -41 150 -84 166 -96 l27 -22 0 -174 c0 -97 -4 -184 -10 -194 -5 -10
-35 -32 -67 -49 l-56 -31 -73 40 c-82 45 -83 45 -109 26 -18 -13 -13 -17 55
-51 70 -35 73 -38 55 -52 -37 -27 -134 -73 -156 -73 -28 0 -319 154 -341 181
-16 18 -18 44 -18 196 0 170 1 174 24 198 13 13 42 33 66 45 l42 21 76 -40
c69 -35 80 -38 101 -27 23 13 22 14 -47 52 -40 22 -72 41 -72 44 1 13 139 79
167 80 22 0 77 -24 170 -74z"/>
<path d="M323 573 l-123 -67 0 -101 0 -101 53 -26 c46 -22 56 -24 76 -13 23
12 23 13 -28 40 l-51 28 0 73 0 73 105 56 c89 48 105 60 105 81 0 13 -3 24 -7
24 -5 0 -63 -31 -130 -67z"/>
<path d="M425 546 c-18 -13 -15 -15 33 -40 l52 -26 0 -73 0 -74 -106 -57 c-88
-49 -105 -61 -102 -79 2 -12 7 -21 11 -21 5 1 62 30 127 65 l120 64 0 100 0
100 -49 28 c-56 31 -61 32 -86 13z"/>
<path d="M333 469 c-28 -18 -45 -49 -28 -49 15 0 104 58 98 63 -12 12 -37 7
-70 -14z"/>
<path d="M372 419 c-67 -37 -89 -59 -59 -59 19 0 147 70 147 80 0 21 -21 16
-88 -21z"/>
<path d="M397 363 c-37 -21 -44 -29 -33 -35 20 -11 96 27 96 47 0 20 -7 19
-63 -12z"/>
</g>
</svg>
